M48
;Layer_Color=9474304
;FILE_FORMAT=4:4
METRIC,LZ
;TYPE=PLATED
T01F00S00C0.4000
T03F00S00C1.5400
T04F00S00C3.4000
;TYPE=NON_PLATED
T05F00S00C1.7000
%
T01
X00268169Y00101831
X0024902Y0016098
X00249839Y0021993
X00273Y00244
X00248992Y00290862
X00462Y00294
X0049Y0025
X00418Y00223
X00437258Y00173258
X00419153Y00129993
X0045674Y0009755
X00503Y00122
X00330139Y00121925
X00363Y00162
X00223129Y00152305
X00194731Y00179407
X002Y0022
X00176802Y00244254
X00187Y00298
X0013Y0016
X00139Y0006
X00159694Y00040491
X00181223Y00060023
X00200113Y001105
T03
X003046Y000169
X0033Y000423
X003046Y000677
X003554
Y000169
X005146
X0054Y000423
X005146Y000677
X005654
Y000169
X005631Y001646
X005377Y0019
X005123Y001646
Y002154
X005631
X005654Y003123
X0054Y003377
X005654Y003631
X005146
Y003123
X0035731Y003123
X0033191Y003377
X0035731Y003631
X0030651
Y003123
X000677Y003054
Y002546
X000169
Y003054
X000423Y0028
T04
X0047Y0003
Y0035
X0003
Y0003
T05
X0002Y0012
M30
