M48
;Layer_Color=9474304
;FILE_FORMAT=4:4
METRIC,LZ
;TYPE=PLATED
T01F00S00C0.3810
T02F00S00C0.4000
T04F00S00C1.5400
;TYPE=NON_PLATED
T05F00S00C1.7000
%
T01
X009745Y00603
X01037Y0061
X01025742Y006425
X00997Y00657
X0096Y00691
X01101Y00641
X0110225Y00561263
X01137Y0055
X01033Y00549
X01061Y00517
T02
X00924Y00612
X01013Y00741
X01131Y0064
T04
X010846Y004446
X011354
Y004954
X010846
X0111Y0047
X010846Y007146
Y007654
X011354
Y007146
X0111Y0074
T05
X00925Y00485
M30
