G04*
G04 #@! TF.GenerationSoftware,Altium Limited,Altium Designer,24.1.2 (44)*
G04*
G04 Layer_Color=65280*
%FSLAX44Y44*%
%MOMM*%
G71*
G04*
G04 #@! TF.SameCoordinates,213EFF85-FE73-46F0-9486-E91859054EE2*
G04*
G04*
G04 #@! TF.FilePolarity,Negative*
G04*
G01*
G75*
%ADD16R,1.0546X1.3562*%
%ADD18C,5.9032*%
%ADD19R,2.3400X2.3400*%
%ADD20C,2.3400*%
%ADD21R,2.3400X2.3400*%
%ADD22R,3.2032X1.7032*%
%ADD23C,1.6032*%
%ADD24R,1.7032X3.7032*%
%ADD25R,1.7032X3.0032*%
%ADD26C,1.0032*%
%ADD39R,0.3500X1.1500*%
%ADD40R,0.9061X1.3098*%
%ADD42R,1.3098X0.9061*%
%ADD43R,2.3300X1.9900*%
G04:AMPARAMS|DCode=47|XSize=1.4232mm|YSize=0.7032mm|CornerRadius=0.1641mm|HoleSize=0mm|Usage=FLASHONLY|Rotation=90.000|XOffset=0mm|YOffset=0mm|HoleType=Round|Shape=RoundedRectangle|*
%AMROUNDEDRECTD47*
21,1,1.4232,0.3750,0,0,90.0*
21,1,1.0950,0.7032,0,0,90.0*
1,1,0.3282,0.1875,0.5475*
1,1,0.3282,0.1875,-0.5475*
1,1,0.3282,-0.1875,-0.5475*
1,1,0.3282,-0.1875,0.5475*
%
%ADD47ROUNDEDRECTD47*%
%ADD48R,0.9032X1.5032*%
G04:AMPARAMS|DCode=49|XSize=1.4232mm|YSize=0.7032mm|CornerRadius=0.1641mm|HoleSize=0mm|Usage=FLASHONLY|Rotation=0.000|XOffset=0mm|YOffset=0mm|HoleType=Round|Shape=RoundedRectangle|*
%AMROUNDEDRECTD49*
21,1,1.4232,0.3750,0,0,0.0*
21,1,1.0950,0.7032,0,0,0.0*
1,1,0.3282,0.5475,-0.1875*
1,1,0.3282,-0.5475,-0.1875*
1,1,0.3282,-0.5475,0.1875*
1,1,0.3282,0.5475,0.1875*
%
%ADD49ROUNDEDRECTD49*%
%ADD50R,1.6532X1.3532*%
%ADD51R,1.5032X0.9032*%
%ADD52R,1.3532X1.6532*%
D16*
X212742Y220000D02*
D03*
X227258D02*
D03*
D18*
X30000Y350000D02*
D03*
X470000Y30000D02*
D03*
Y350000D02*
D03*
X30000Y30000D02*
D03*
D19*
X540000Y42300D02*
D03*
Y337700D02*
D03*
X330000Y42300D02*
D03*
X331910Y337700D02*
D03*
D20*
X514600Y16900D02*
D03*
Y67700D02*
D03*
X565400Y16900D02*
D03*
Y67700D02*
D03*
X563100Y164600D02*
D03*
X512300D02*
D03*
X563100Y215400D02*
D03*
X512300D02*
D03*
X565400Y363100D02*
D03*
Y312300D02*
D03*
X514600Y363100D02*
D03*
Y312300D02*
D03*
X304600Y16900D02*
D03*
Y67700D02*
D03*
X355400Y16900D02*
D03*
Y67700D02*
D03*
X357310Y363100D02*
D03*
Y312300D02*
D03*
X306510Y363100D02*
D03*
Y312300D02*
D03*
X67700Y254600D02*
D03*
X16900D02*
D03*
X67700Y305400D02*
D03*
X16900D02*
D03*
D21*
X537700Y190000D02*
D03*
X42300Y280000D02*
D03*
D22*
X40000Y165000D02*
D03*
Y75000D02*
D03*
D23*
X20000Y120000D02*
D03*
D24*
X110000D02*
D03*
D25*
X50000D02*
D03*
D26*
X223000Y152000D02*
D03*
X346000Y243000D02*
D03*
X240000Y220000D02*
D03*
X437258Y173258D02*
D03*
X344000Y262000D02*
D03*
X296639Y261410D02*
D03*
X299000Y218000D02*
D03*
X233000Y38000D02*
D03*
X209000Y85000D02*
D03*
X255000Y77000D02*
D03*
X200000Y220000D02*
D03*
X194731Y179407D02*
D03*
X490000Y250000D02*
D03*
X176802Y244254D02*
D03*
X462000Y294000D02*
D03*
X363000Y162000D02*
D03*
X503000Y122000D02*
D03*
X418000Y223000D02*
D03*
X200113Y110500D02*
D03*
X139000Y60000D02*
D03*
X181223Y60023D02*
D03*
X159694Y40491D02*
D03*
X456740Y97550D02*
D03*
X419153Y129993D02*
D03*
X330139Y121925D02*
D03*
X187000Y298000D02*
D03*
X130000Y160000D02*
D03*
X249020Y160980D02*
D03*
X268169Y101831D02*
D03*
D39*
X186500Y259750D02*
D03*
X180000D02*
D03*
X173500D02*
D03*
Y280250D02*
D03*
X186500D02*
D03*
D40*
X312239Y280000D02*
D03*
X327761D02*
D03*
X537761Y100000D02*
D03*
X522239D02*
D03*
X537761Y280000D02*
D03*
X522239D02*
D03*
X332239Y100000D02*
D03*
X347761D02*
D03*
D42*
X480000Y192239D02*
D03*
Y207761D02*
D03*
X140000Y252239D02*
D03*
Y267761D02*
D03*
D43*
X160000Y120100D02*
D03*
Y59900D02*
D03*
D47*
X331500Y217550D02*
D03*
X322000D02*
D03*
X312500D02*
D03*
Y242450D02*
D03*
X331500D02*
D03*
X330500Y137550D02*
D03*
X349500D02*
D03*
Y162450D02*
D03*
X340000D02*
D03*
X330500D02*
D03*
X470500Y97550D02*
D03*
X489500D02*
D03*
Y122450D02*
D03*
X480000D02*
D03*
X470500D02*
D03*
D48*
X245497Y61999D02*
D03*
X254998D02*
D03*
X264498D02*
D03*
Y37999D02*
D03*
X245497D02*
D03*
X229500Y168000D02*
D03*
X220000D02*
D03*
X210500D02*
D03*
Y192000D02*
D03*
X229500D02*
D03*
D49*
X442450Y190500D02*
D03*
Y209500D02*
D03*
X417550D02*
D03*
Y200000D02*
D03*
Y190500D02*
D03*
X486450Y260500D02*
D03*
Y279500D02*
D03*
X461550D02*
D03*
Y270000D02*
D03*
Y260500D02*
D03*
D50*
X100000Y278750D02*
D03*
Y261250D02*
D03*
D51*
X218000Y100500D02*
D03*
Y110000D02*
D03*
Y119500D02*
D03*
X242000D02*
D03*
Y100500D02*
D03*
D52*
X141250Y320000D02*
D03*
X158750D02*
D03*
X90000D02*
D03*
X107500D02*
D03*
X151250Y160000D02*
D03*
X168750D02*
D03*
M02*
