G04*
G04 #@! TF.GenerationSoftware,Altium Limited,Altium Designer,24.1.2 (44)*
G04*
G04 Layer_Color=8388736*
%FSLAX44Y44*%
%MOMM*%
G71*
G04*
G04 #@! TF.SameCoordinates,213EFF85-FE73-46F0-9486-E91859054EE2*
G04*
G04*
G04 #@! TF.FilePolarity,Negative*
G04*
G01*
G75*
%ADD15R,1.3562X1.0546*%
%ADD16R,1.0546X1.3562*%
%ADD17R,0.8000X0.8000*%
%ADD18C,5.9032*%
%ADD19R,2.3400X2.3400*%
%ADD20C,2.3400*%
%ADD21R,2.3400X2.3400*%
%ADD22R,3.2032X1.7032*%
%ADD23C,1.6032*%
%ADD24R,1.7032X3.7032*%
%ADD25R,1.7032X3.0032*%
%ADD26C,1.0032*%
D15*
X322000Y222742D02*
D03*
Y237258D02*
D03*
X255000Y57258D02*
D03*
Y42742D02*
D03*
X210000Y52742D02*
D03*
Y67258D02*
D03*
X480000Y102742D02*
D03*
Y117258D02*
D03*
X340000Y157258D02*
D03*
Y142742D02*
D03*
D16*
X422500Y200000D02*
D03*
X437016D02*
D03*
X466742Y270000D02*
D03*
X481258D02*
D03*
X222742Y110000D02*
D03*
X237258D02*
D03*
X212742Y178500D02*
D03*
X227258D02*
D03*
X187258Y270000D02*
D03*
X172742D02*
D03*
D17*
X132500Y180000D02*
D03*
X147500D02*
D03*
D18*
X30000Y350000D02*
D03*
X470000Y30000D02*
D03*
Y350000D02*
D03*
X30000Y30000D02*
D03*
D19*
X540000Y42300D02*
D03*
Y337700D02*
D03*
X330000Y42300D02*
D03*
X331910Y337700D02*
D03*
D20*
X514600Y16900D02*
D03*
Y67700D02*
D03*
X565400Y16900D02*
D03*
Y67700D02*
D03*
X563100Y164600D02*
D03*
X512300D02*
D03*
X563100Y215400D02*
D03*
X512300D02*
D03*
X565400Y363100D02*
D03*
Y312300D02*
D03*
X514600Y363100D02*
D03*
Y312300D02*
D03*
X304600Y16900D02*
D03*
Y67700D02*
D03*
X355400Y16900D02*
D03*
Y67700D02*
D03*
X357310Y363100D02*
D03*
Y312300D02*
D03*
X306510Y363100D02*
D03*
Y312300D02*
D03*
X67700Y254600D02*
D03*
X16900D02*
D03*
X67700Y305400D02*
D03*
X16900D02*
D03*
D21*
X537700Y190000D02*
D03*
X42300Y280000D02*
D03*
D22*
X40000Y165000D02*
D03*
Y75000D02*
D03*
D23*
X20000Y120000D02*
D03*
D24*
X110000D02*
D03*
D25*
X50000D02*
D03*
D26*
X223000Y152000D02*
D03*
X346000Y243000D02*
D03*
X240000Y220000D02*
D03*
X437258Y173258D02*
D03*
X344000Y262000D02*
D03*
X296639Y261410D02*
D03*
X299000Y218000D02*
D03*
X233000Y38000D02*
D03*
X209000Y85000D02*
D03*
X255000Y77000D02*
D03*
X200000Y220000D02*
D03*
X194731Y179407D02*
D03*
X490000Y250000D02*
D03*
X176802Y244254D02*
D03*
X462000Y294000D02*
D03*
X363000Y162000D02*
D03*
X503000Y122000D02*
D03*
X418000Y223000D02*
D03*
X200113Y110500D02*
D03*
X139000Y60000D02*
D03*
X181223Y60023D02*
D03*
X159694Y40491D02*
D03*
X456740Y97550D02*
D03*
X419153Y129993D02*
D03*
X330139Y121925D02*
D03*
X187000Y298000D02*
D03*
X130000Y160000D02*
D03*
X249020Y160980D02*
D03*
X268169Y101831D02*
D03*
M02*
