G04*
G04 #@! TF.GenerationSoftware,Altium Limited,Altium Designer,24.1.2 (44)*
G04*
G04 Layer_Physical_Order=2*
G04 Layer_Color=16711680*
%FSLAX44Y44*%
%MOMM*%
G71*
G04*
G04 #@! TF.SameCoordinates,213EFF85-FE73-46F0-9486-E91859054EE2*
G04*
G04*
G04 #@! TF.FilePolarity,Positive*
G04*
G01*
G75*
%ADD12C,0.2540*%
%ADD16R,1.0546X1.3562*%
%ADD19R,2.3400X2.3400*%
%ADD20C,2.3400*%
%ADD21R,2.3400X2.3400*%
%ADD27C,0.5000*%
%ADD28C,0.6250*%
%ADD29C,0.6350*%
%ADD30C,5.7000*%
%ADD31R,3.0000X1.5000*%
%ADD32C,1.4000*%
%ADD33R,1.5000X3.5000*%
%ADD34R,1.5000X2.8000*%
%ADD35C,0.8000*%
G04:AMPARAMS|DCode=36|XSize=1.22mm|YSize=0.5mm|CornerRadius=0.0625mm|HoleSize=0mm|Usage=FLASHONLY|Rotation=90.000|XOffset=0mm|YOffset=0mm|HoleType=Round|Shape=RoundedRectangle|*
%AMROUNDEDRECTD36*
21,1,1.2200,0.3750,0,0,90.0*
21,1,1.0950,0.5000,0,0,90.0*
1,1,0.1250,0.1875,0.5475*
1,1,0.1250,0.1875,-0.5475*
1,1,0.1250,-0.1875,-0.5475*
1,1,0.1250,-0.1875,0.5475*
%
%ADD36ROUNDEDRECTD36*%
%ADD37R,0.7000X1.3000*%
G04:AMPARAMS|DCode=38|XSize=1.22mm|YSize=0.5mm|CornerRadius=0.0625mm|HoleSize=0mm|Usage=FLASHONLY|Rotation=0.000|XOffset=0mm|YOffset=0mm|HoleType=Round|Shape=RoundedRectangle|*
%AMROUNDEDRECTD38*
21,1,1.2200,0.3750,0,0,0.0*
21,1,1.0950,0.5000,0,0,0.0*
1,1,0.1250,0.5475,-0.1875*
1,1,0.1250,-0.5475,-0.1875*
1,1,0.1250,-0.5475,0.1875*
1,1,0.1250,0.5475,0.1875*
%
%ADD38ROUNDEDRECTD38*%
%ADD39R,0.3500X1.1500*%
%ADD40R,0.9061X1.3098*%
%ADD41R,1.4500X1.1500*%
%ADD42R,1.3098X0.9061*%
%ADD43R,2.3300X1.9900*%
%ADD44R,1.3000X0.7000*%
%ADD45R,1.1500X1.4500*%
%ADD46C,1.0000*%
D12*
X301488Y152000D02*
X310512D01*
X312000Y153488D01*
Y181000D01*
X300000Y153488D02*
Y182512D01*
Y153488D02*
X301488Y152000D01*
X275000Y153488D02*
Y193000D01*
X286512Y152000D02*
X288000Y153488D01*
X276488Y152000D02*
X286512D01*
X288000Y153488D02*
Y182512D01*
X275000Y153488D02*
X276488Y152000D01*
X315000Y184000D02*
X326000D01*
X312000Y181000D02*
X315000Y184000D01*
X289488D02*
X298512D01*
X300000Y182512D01*
X288000D02*
X289488Y184000D01*
X344000Y262000D02*
X365000Y241000D01*
Y213488D02*
Y241000D01*
X350512Y199000D02*
X365000Y213488D01*
X252488Y265000D02*
X271512D01*
X328000Y199000D02*
X350512D01*
X271512Y265000D02*
X273000Y263512D01*
X251000Y270308D02*
X252488Y271796D01*
X187988Y248850D02*
X255150D01*
X286252Y271796D02*
X296639Y261410D01*
X251000Y266488D02*
Y270308D01*
X255150Y248850D02*
X262650Y256350D01*
X271512D02*
X273000Y257838D01*
Y263512D01*
X251000Y266488D02*
X252488Y265000D01*
X262650Y256350D02*
X271512D01*
X252488Y271796D02*
X286252D01*
X399000Y205488D02*
Y235000D01*
X368488Y248000D02*
X386000D01*
X399000Y235000D01*
Y205488D02*
X403000Y201488D01*
X367000Y249488D02*
X368488Y248000D01*
X367000Y249488D02*
Y260000D01*
X365000Y262000D02*
X367000Y260000D01*
X344000Y262000D02*
X365000D01*
X403000Y201488D02*
Y201488D01*
Y201488D02*
X404488Y200000D01*
X417550D01*
X322000Y205000D02*
Y217550D01*
Y205000D02*
X328000Y199000D01*
X255150Y212850D02*
Y248850D01*
Y212850D02*
X275000Y193000D01*
X338770Y163680D02*
X340000Y162450D01*
X338770Y163680D02*
Y171230D01*
X326000Y184000D02*
X338770Y171230D01*
X255150Y248850D02*
X314000Y190000D01*
X255150Y248850D02*
X255150D01*
X186500Y250338D02*
Y259750D01*
Y250338D02*
X187988Y248850D01*
X314000Y190000D02*
X395000D01*
X474196Y132320D02*
X478770Y127746D01*
Y123680D02*
X480000Y122450D01*
X452680Y132320D02*
X474196D01*
X478770Y123680D02*
Y127746D01*
X395000Y190000D02*
X452680Y132320D01*
X330000Y42300D02*
X332239Y44539D01*
Y100000D01*
X352000Y270000D02*
X461550D01*
X344000Y262000D02*
X352000Y270000D01*
X312500Y242450D02*
Y279739D01*
X312239Y280000D02*
X312500Y279739D01*
X176802Y244254D02*
X180000Y247452D01*
Y259750D01*
X347761Y100000D02*
X349500Y101739D01*
Y137550D01*
X519789Y97550D02*
X522239Y100000D01*
X489500Y97550D02*
X519789D01*
X478261Y209500D02*
X480000Y207761D01*
X442450Y209500D02*
X478261D01*
X521739Y279500D02*
X522239Y280000D01*
X486450Y279500D02*
X521739D01*
X327761Y333551D02*
X331910Y337700D01*
X327761Y280000D02*
Y333551D01*
X537761Y335461D02*
X540000Y337700D01*
X537761Y280000D02*
Y335461D01*
X535461Y192239D02*
X537700Y190000D01*
X480000Y192239D02*
X535461D01*
X537761Y44539D02*
X540000Y42300D01*
X537761Y44539D02*
Y100000D01*
X173500Y280250D02*
Y293500D01*
X170000Y297000D02*
X173500Y293500D01*
X149000Y297000D02*
X170000D01*
X141250Y304750D02*
X149000Y297000D01*
X141250Y304750D02*
Y320000D01*
X107500D02*
X141250D01*
X169989Y252239D02*
X173500Y255750D01*
X140000Y252239D02*
X169989D01*
X173500Y255750D02*
Y259750D01*
X104480Y274270D02*
X131472D01*
X137981Y267761D02*
X140000D01*
X100000Y278750D02*
X104480Y274270D01*
X131472D02*
X137981Y267761D01*
X98750Y280000D02*
X100000Y278750D01*
X42300Y280000D02*
X98750D01*
X130000Y160000D02*
X151250D01*
D16*
X212742Y220000D02*
D03*
X227258D02*
D03*
D19*
X540000Y42300D02*
D03*
Y337700D02*
D03*
X330000Y42300D02*
D03*
X331910Y337700D02*
D03*
D20*
X514600Y16900D02*
D03*
Y67700D02*
D03*
X565400Y16900D02*
D03*
Y67700D02*
D03*
X563100Y164600D02*
D03*
X512300D02*
D03*
X563100Y215400D02*
D03*
X512300D02*
D03*
X565400Y363100D02*
D03*
Y312300D02*
D03*
X514600Y363100D02*
D03*
Y312300D02*
D03*
X304600Y16900D02*
D03*
Y67700D02*
D03*
X355400Y16900D02*
D03*
Y67700D02*
D03*
X357310Y363100D02*
D03*
Y312300D02*
D03*
X306510Y363100D02*
D03*
Y312300D02*
D03*
X67700Y254600D02*
D03*
X16900D02*
D03*
X67700Y305400D02*
D03*
X16900D02*
D03*
D21*
X537700Y190000D02*
D03*
X42300Y280000D02*
D03*
D27*
X331500Y242450D02*
X345450D01*
X346000Y243000D01*
X227258Y220000D02*
X240000D01*
X437258Y173258D02*
Y174070D01*
X442450Y179262D02*
Y190500D01*
X437258Y174070D02*
X442450Y179262D01*
X299225Y217775D02*
X312275D01*
X490000Y250000D02*
Y256950D01*
X486450Y260500D02*
X490000Y256950D01*
X461550Y279500D02*
Y293550D01*
X349500Y162225D02*
X362775D01*
X489500Y122450D02*
X502550D01*
X417550Y209500D02*
Y222104D01*
X217400Y120100D02*
X218000Y119500D01*
X160000Y120100D02*
X217400D01*
X456740Y97550D02*
X470500D01*
X451596D02*
X456740D01*
X419153Y129993D02*
X451596Y97550D01*
X330139Y121925D02*
X330500Y122286D01*
Y137550D01*
X228500Y193000D02*
Y218758D01*
Y193000D02*
X229500Y192000D01*
X227258Y220000D02*
X228500Y218758D01*
D28*
X226040Y138000D02*
X249020Y160980D01*
X210661Y138000D02*
X226040D01*
X207000Y141661D02*
X210661Y138000D01*
X207000Y141661D02*
Y160000D01*
X210125Y163661D02*
Y167625D01*
X206464Y160000D02*
X210125Y163661D01*
X168750Y160000D02*
X206464D01*
X210125Y167625D02*
X210500Y168000D01*
X229875Y164625D02*
Y167625D01*
X229500Y168000D02*
X229875Y167625D01*
X249020Y160980D02*
X270000Y140000D01*
Y103661D02*
Y140000D01*
X233000Y38000D02*
X245497D01*
X233000Y38000D02*
X233000Y38000D01*
X245497D02*
X245497Y37999D01*
X209000Y85000D02*
Y85474D01*
X217625Y100125D02*
X218000Y100500D01*
X209000Y85000D02*
X222875D01*
X225500Y82375D02*
X245375D01*
X222875Y85000D02*
X225500Y82375D01*
X214625Y100125D02*
X217625D01*
X208335Y86139D02*
Y93835D01*
X214625Y100125D01*
X165661Y85000D02*
X209000D01*
X208335Y86139D02*
X209000Y85474D01*
X160000Y90661D02*
X165661Y85000D01*
X160000Y90661D02*
Y120100D01*
X264625Y62127D02*
Y82714D01*
X251000Y88000D02*
X259339D01*
X264498Y61999D02*
X264625Y62127D01*
X259339Y88000D02*
X264625Y82714D01*
X245375Y82375D02*
X251000Y88000D01*
X245375Y62122D02*
X245497Y61999D01*
X245375Y62122D02*
Y82375D01*
X187000Y298000D02*
Y310000D01*
Y280750D02*
Y298000D01*
X158750Y320000D02*
X177000D01*
X187000Y310000D01*
X242000Y168000D02*
X249020Y160980D01*
X268169Y101831D02*
X270000Y103661D01*
X266339Y100000D02*
X268169Y101831D01*
X242000Y100500D02*
X242375Y100125D01*
X257875D02*
X258000Y100000D01*
X242375Y100125D02*
X257875D01*
X258000Y100000D02*
X266339D01*
X229500Y168000D02*
X242000D01*
X159900Y120000D02*
X160000Y120100D01*
D29*
X220325Y155121D02*
Y167675D01*
X220000Y168000D02*
X220325Y167675D01*
X223000Y152000D02*
Y152446D01*
X220325Y155121D02*
X223000Y152446D01*
X299000Y218000D02*
X299225Y217775D01*
X254998Y61999D02*
X254999Y62000D01*
Y76999D01*
X255000Y77000D01*
X200000Y220000D02*
X212742D01*
X72314Y254600D02*
X78964Y261250D01*
X100000D01*
X67700Y254600D02*
X72314D01*
X67700Y305400D02*
X67700D01*
X87895Y317895D02*
X90000Y320000D01*
X80195Y317895D02*
X87895D01*
X67700Y305400D02*
X80195Y317895D01*
X461550Y293550D02*
X462000Y294000D01*
X362775Y162225D02*
X363000Y162000D01*
X502550Y122450D02*
X503000Y122000D01*
X418000Y222554D02*
Y223000D01*
X417550Y222104D02*
X418000Y222554D01*
X200363Y110250D02*
X217750D01*
X218000Y110000D01*
X200113Y110500D02*
X200363Y110250D01*
X139000Y60000D02*
X139100Y59900D01*
X160000D01*
X181100D02*
X181223Y60023D01*
X160000Y59900D02*
X181100D01*
X159694Y40491D02*
X160000Y40797D01*
Y59900D01*
D30*
X30000Y350000D02*
D03*
X470000Y30000D02*
D03*
Y350000D02*
D03*
X30000Y30000D02*
D03*
D31*
X40000Y165000D02*
D03*
Y75000D02*
D03*
D32*
X20000Y120000D02*
D03*
D33*
X110000D02*
D03*
D34*
X50000D02*
D03*
D35*
X223000Y152000D02*
D03*
X346000Y243000D02*
D03*
X240000Y220000D02*
D03*
X437258Y173258D02*
D03*
X344000Y262000D02*
D03*
X296639Y261410D02*
D03*
X299000Y218000D02*
D03*
X233000Y38000D02*
D03*
X209000Y85000D02*
D03*
X255000Y77000D02*
D03*
X200000Y220000D02*
D03*
X194731Y179407D02*
D03*
X490000Y250000D02*
D03*
X176802Y244254D02*
D03*
X462000Y294000D02*
D03*
X363000Y162000D02*
D03*
X503000Y122000D02*
D03*
X418000Y223000D02*
D03*
X200113Y110500D02*
D03*
X139000Y60000D02*
D03*
X181223Y60023D02*
D03*
X159694Y40491D02*
D03*
X456740Y97550D02*
D03*
X419153Y129993D02*
D03*
X330139Y121925D02*
D03*
X187000Y298000D02*
D03*
X130000Y160000D02*
D03*
X249020Y160980D02*
D03*
X268169Y101831D02*
D03*
D36*
X331500Y217550D02*
D03*
X322000D02*
D03*
X312500D02*
D03*
Y242450D02*
D03*
X331500D02*
D03*
X330500Y137550D02*
D03*
X349500D02*
D03*
Y162450D02*
D03*
X340000D02*
D03*
X330500D02*
D03*
X470500Y97550D02*
D03*
X489500D02*
D03*
Y122450D02*
D03*
X480000D02*
D03*
X470500D02*
D03*
D37*
X245497Y61999D02*
D03*
X254998D02*
D03*
X264498D02*
D03*
Y37999D02*
D03*
X245497D02*
D03*
X229500Y168000D02*
D03*
X220000D02*
D03*
X210500D02*
D03*
Y192000D02*
D03*
X229500D02*
D03*
D38*
X442450Y190500D02*
D03*
Y209500D02*
D03*
X417550D02*
D03*
Y200000D02*
D03*
Y190500D02*
D03*
X486450Y260500D02*
D03*
Y279500D02*
D03*
X461550D02*
D03*
Y270000D02*
D03*
Y260500D02*
D03*
D39*
X186500Y259750D02*
D03*
X180000D02*
D03*
X173500D02*
D03*
Y280250D02*
D03*
X186500D02*
D03*
D40*
X312239Y280000D02*
D03*
X327761D02*
D03*
X537761Y100000D02*
D03*
X522239D02*
D03*
X537761Y280000D02*
D03*
X522239D02*
D03*
X332239Y100000D02*
D03*
X347761D02*
D03*
D41*
X100000Y278750D02*
D03*
Y261250D02*
D03*
D42*
X480000Y192239D02*
D03*
Y207761D02*
D03*
X140000Y252239D02*
D03*
Y267761D02*
D03*
D43*
X160000Y120100D02*
D03*
Y59900D02*
D03*
D44*
X218000Y100500D02*
D03*
Y110000D02*
D03*
Y119500D02*
D03*
X242000D02*
D03*
Y100500D02*
D03*
D45*
X141250Y320000D02*
D03*
X158750D02*
D03*
X90000D02*
D03*
X107500D02*
D03*
X151250Y160000D02*
D03*
X168750D02*
D03*
D46*
X110000Y120000D02*
X159900D01*
M02*
