G04*
G04 #@! TF.GenerationSoftware,Altium Limited,Altium Designer,24.1.2 (44)*
G04*
G04 Layer_Color=32896*
%FSLAX44Y44*%
%MOMM*%
G71*
G04*
G04 #@! TF.SameCoordinates,213EFF85-FE73-46F0-9486-E91859054EE2*
G04*
G04*
G04 #@! TF.FilePolarity,Positive*
G04*
G01*
G75*
%ADD10C,0.2500*%
%ADD11C,0.2000*%
%ADD12C,0.2540*%
%ADD53C,0.1270*%
D10*
X237747Y61999D02*
G03*
X237747Y61999I-1250J0D01*
G01*
X187750Y248500D02*
G03*
X187750Y248500I-1250J0D01*
G01*
X239750Y168000D02*
G03*
X239750Y168000I-1250J0D01*
G01*
X219250Y91500D02*
G03*
X219250Y91500I-1250J0D01*
G01*
D11*
X332500Y205000D02*
G03*
X332500Y205000I-1000J0D01*
G01*
X406000Y190500D02*
G03*
X406000Y190500I-1000J0D01*
G01*
X331500Y175000D02*
G03*
X331500Y175000I-1000J0D01*
G01*
X450000Y260500D02*
G03*
X450000Y260500I-1000J0D01*
G01*
X471500Y135000D02*
G03*
X471500Y135000I-1000J0D01*
G01*
X239498Y48499D02*
Y51499D01*
X270497Y48499D02*
Y51499D01*
X239498D02*
X270497D01*
X239498Y48499D02*
X270497D01*
X192500Y263250D02*
Y276750D01*
X167500D02*
X168000D01*
X192000D02*
X192500D01*
X167500Y263250D02*
Y276750D01*
Y263250D02*
X168000D01*
X192000D02*
X192500D01*
X307709Y291000D02*
X332291D01*
X307709Y269000D02*
X332291D01*
X517709Y89000D02*
X542291D01*
X517709Y111000D02*
X542291D01*
X469000Y187709D02*
Y212291D01*
X491000Y187709D02*
Y212291D01*
X517709Y269000D02*
X542291D01*
X517709Y291000D02*
X542291D01*
X327709Y111000D02*
X352291D01*
X327709Y89000D02*
X352291D01*
X157500Y137000D02*
X162500D01*
X160000Y134500D02*
Y139500D01*
X175400Y52000D02*
X183000D01*
X137000D02*
X144600D01*
X137000D02*
Y128000D01*
X175400D02*
X183000D01*
X137000D02*
X144600D01*
X183000Y52000D02*
Y128000D01*
X207469Y231250D02*
X232531D01*
X207469Y208750D02*
X232531D01*
X235500Y178500D02*
Y181500D01*
X204500Y178500D02*
Y181500D01*
Y178500D02*
X235500D01*
X204500Y181500D02*
X235500D01*
X228500Y94500D02*
X231500D01*
X228500Y125500D02*
X231500D01*
X228500Y94500D02*
Y125500D01*
X231500Y94500D02*
Y125500D01*
X129000Y247709D02*
Y272291D01*
X151000Y247709D02*
Y272291D01*
X183000Y7000D02*
Y16997D01*
X176336Y7000D01*
Y16997D01*
X173003Y7000D02*
Y8666D01*
X171337D01*
Y7000D01*
X173003D01*
X158008Y15331D02*
X159674Y16997D01*
X163006D01*
X164673Y15331D01*
Y8666D01*
X163006Y7000D01*
X159674D01*
X158008Y8666D01*
Y11998D01*
X161340D01*
X154676Y7000D02*
Y8666D01*
X153010D01*
Y7000D01*
X154676D01*
X129684Y16997D02*
X136348D01*
Y11998D01*
X133016D01*
X136348D01*
Y7000D01*
X121353D02*
X124685D01*
X126352Y8666D01*
Y11998D01*
X124685Y13664D01*
X121353D01*
X119687Y11998D01*
Y10332D01*
X126352D01*
X116355Y16997D02*
Y7000D01*
X111356D01*
X109690Y8666D01*
Y10332D01*
Y11998D01*
X111356Y13664D01*
X116355D01*
X106358Y11998D02*
X99694D01*
X89697Y7000D02*
X96361D01*
X89697Y13664D01*
Y15331D01*
X91363Y16997D01*
X94695D01*
X96361Y15331D01*
X86364D02*
X84698Y16997D01*
X81366D01*
X79700Y15331D01*
Y8666D01*
X81366Y7000D01*
X84698D01*
X86364Y8666D01*
Y15331D01*
X69703Y7000D02*
X76368D01*
X69703Y13664D01*
Y15331D01*
X71369Y16997D01*
X74702D01*
X76368Y15331D01*
X61372Y7000D02*
Y16997D01*
X66371Y11998D01*
X59706D01*
D12*
X364696Y252617D02*
Y239922D01*
X362157Y237383D01*
X357078D01*
X354539Y239922D01*
Y252617D01*
X339304D02*
X349461D01*
Y245000D01*
X344383Y247539D01*
X341843D01*
X339304Y245000D01*
Y239922D01*
X341843Y237383D01*
X346922D01*
X349461Y239922D01*
X297696Y47618D02*
Y34922D01*
X295157Y32383D01*
X290078D01*
X287539Y34922D01*
Y47618D01*
X282461Y34922D02*
X279922Y32383D01*
X274843D01*
X272304Y34922D01*
Y45078D01*
X274843Y47618D01*
X279922D01*
X282461Y45078D01*
Y42539D01*
X279922Y40000D01*
X272304D01*
X215157Y142618D02*
Y129922D01*
X212617Y127382D01*
X207539D01*
X205000Y129922D01*
Y142618D01*
X199922Y127382D02*
X194843D01*
X197382D01*
Y142618D01*
X199922Y140078D01*
X495972Y221792D02*
Y237027D01*
X488354D01*
X485815Y234488D01*
Y229410D01*
X488354Y226870D01*
X495972D01*
X490894D02*
X485815Y221792D01*
X480737Y224331D02*
X478198Y221792D01*
X473119D01*
X470580Y224331D01*
Y234488D01*
X473119Y237027D01*
X478198D01*
X480737Y234488D01*
Y231949D01*
X478198Y229410D01*
X470580D01*
X542696Y252383D02*
Y267617D01*
X535078D01*
X532539Y265078D01*
Y260000D01*
X535078Y257461D01*
X542696D01*
X537618D02*
X532539Y252383D01*
X527461Y265078D02*
X524922Y267617D01*
X519843D01*
X517304Y265078D01*
Y262539D01*
X519843Y260000D01*
X517304Y257461D01*
Y254922D01*
X519843Y252383D01*
X524922D01*
X527461Y254922D01*
Y257461D01*
X524922Y260000D01*
X527461Y262539D01*
Y265078D01*
X524922Y260000D02*
X519843D01*
X542696Y112382D02*
Y127618D01*
X535078D01*
X532539Y125078D01*
Y120000D01*
X535078Y117461D01*
X542696D01*
X537618D02*
X532539Y112382D01*
X527461Y127618D02*
X517304D01*
Y125078D01*
X527461Y114922D01*
Y112382D01*
X322696Y92382D02*
Y107618D01*
X315078D01*
X312539Y105078D01*
Y100000D01*
X315078Y97461D01*
X322696D01*
X317617D02*
X312539Y92382D01*
X297304Y107618D02*
X302383Y105078D01*
X307461Y100000D01*
Y94922D01*
X304922Y92382D01*
X299843D01*
X297304Y94922D01*
Y97461D01*
X299843Y100000D01*
X307461D01*
X430948Y240075D02*
Y227379D01*
X428409Y224840D01*
X423330D01*
X420791Y227379D01*
Y240075D01*
X415713Y237536D02*
X413174Y240075D01*
X408095D01*
X405556Y237536D01*
Y234997D01*
X408095Y232458D01*
X405556Y229918D01*
Y227379D01*
X408095Y224840D01*
X413174D01*
X415713Y227379D01*
Y229918D01*
X413174Y232458D01*
X415713Y234997D01*
Y237536D01*
X413174Y232458D02*
X408095D01*
X474890Y310179D02*
Y297483D01*
X472351Y294944D01*
X467272D01*
X464733Y297483D01*
Y310179D01*
X459655D02*
X449498D01*
Y307640D01*
X459655Y297483D01*
Y294944D01*
X457618Y107304D02*
X444922D01*
X442383Y109843D01*
Y114922D01*
X444922Y117461D01*
X457618D01*
Y132696D02*
X455078Y127618D01*
X450000Y122539D01*
X444922D01*
X442383Y125078D01*
Y130157D01*
X444922Y132696D01*
X447461D01*
X450000Y130157D01*
Y122539D01*
X190918Y310941D02*
Y298245D01*
X188379Y295706D01*
X183300D01*
X180761Y298245D01*
Y310941D01*
X168065Y295706D02*
Y310941D01*
X175683Y303323D01*
X165526D01*
X382696Y147618D02*
Y134922D01*
X380157Y132382D01*
X375078D01*
X372539Y134922D01*
Y147618D01*
X367461Y145078D02*
X364922Y147618D01*
X359843D01*
X357304Y145078D01*
Y142539D01*
X359843Y140000D01*
X362383D01*
X359843D01*
X357304Y137461D01*
Y134922D01*
X359843Y132382D01*
X364922D01*
X367461Y134922D01*
X262696Y187617D02*
Y174922D01*
X260157Y172383D01*
X255078D01*
X252539Y174922D01*
Y187617D01*
X237304Y172383D02*
X247461D01*
X237304Y182539D01*
Y185078D01*
X239843Y187617D01*
X244922D01*
X247461Y185078D01*
X92382Y210956D02*
X107618D01*
Y218574D01*
X105078Y221113D01*
X100000D01*
X97461Y218574D01*
Y210956D01*
Y216035D02*
X92382Y221113D01*
Y226191D02*
Y231270D01*
Y228730D01*
X107618D01*
X105078Y226191D01*
Y238887D02*
X107618Y241426D01*
Y246505D01*
X105078Y249044D01*
X94922D01*
X92382Y246505D01*
Y241426D01*
X94922Y238887D01*
X105078D01*
X337304Y287617D02*
Y272383D01*
X344922D01*
X347461Y274922D01*
Y280000D01*
X344922Y282539D01*
X337304D01*
X342383D02*
X347461Y287617D01*
X362696Y272383D02*
X352539D01*
Y280000D01*
X357617Y277461D01*
X360157D01*
X362696Y280000D01*
Y285078D01*
X360157Y287617D01*
X355078D01*
X352539Y285078D01*
X132382Y277304D02*
X147618D01*
Y284922D01*
X145078Y287461D01*
X140000D01*
X137461Y284922D01*
Y277304D01*
Y282382D02*
X132382Y287461D01*
Y300157D02*
X147618D01*
X140000Y292539D01*
Y302696D01*
X170598Y177850D02*
Y193085D01*
X162980D01*
X160441Y190546D01*
Y185467D01*
X162980Y182928D01*
X170598D01*
X165520D02*
X160441Y177850D01*
X155363Y190546D02*
X152824Y193085D01*
X147745D01*
X145206Y190546D01*
Y188007D01*
X147745Y185467D01*
X150285D01*
X147745D01*
X145206Y182928D01*
Y180389D01*
X147745Y177850D01*
X152824D01*
X155363Y180389D01*
X112696Y332383D02*
Y347617D01*
X105078D01*
X102539Y345078D01*
Y340000D01*
X105078Y337461D01*
X112696D01*
X107618D02*
X102539Y332383D01*
X87304D02*
X97461D01*
X87304Y342539D01*
Y345078D01*
X89843Y347617D01*
X94922D01*
X97461Y345078D01*
X160157Y332383D02*
Y347617D01*
X152539D01*
X150000Y345078D01*
Y340000D01*
X152539Y337461D01*
X160157D01*
X155078D02*
X150000Y332383D01*
X144922D02*
X139843D01*
X142382D01*
Y347617D01*
X144922Y345078D01*
X222539Y245078D02*
X225078Y247617D01*
X230157D01*
X232696Y245078D01*
Y234922D01*
X230157Y232383D01*
X225078D01*
X222539Y234922D01*
X209843Y232383D02*
Y247617D01*
X217461Y240000D01*
X207304D01*
X165000Y95078D02*
X167539Y97618D01*
X172617D01*
X175157Y95078D01*
Y84922D01*
X172617Y82382D01*
X167539D01*
X165000Y84922D01*
X159922Y82382D02*
X154843D01*
X157382D01*
Y97618D01*
X159922Y95078D01*
D53*
X337200Y222500D02*
Y237500D01*
X306800Y222500D02*
Y237500D01*
X422500Y215200D02*
X437500D01*
X422500Y184800D02*
X437500D01*
X355200Y142500D02*
Y157500D01*
X324800Y142500D02*
Y157500D01*
X466500Y285200D02*
X481500D01*
X466500Y254800D02*
X481500D01*
X495200Y102500D02*
Y117500D01*
X464800Y102500D02*
Y117500D01*
M02*
