G04*
G04 #@! TF.GenerationSoftware,Altium Limited,Altium Designer,24.1.2 (44)*
G04*
G04 Layer_Color=16777215*
%FSLAX44Y44*%
%MOMM*%
G71*
G04*
G04 #@! TF.SameCoordinates,213EFF85-FE73-46F0-9486-E91859054EE2*
G04*
G04*
G04 #@! TF.FilePolarity,Positive*
G04*
G01*
G75*
%ADD10C,0.2500*%
%ADD11C,0.2000*%
%ADD12C,0.2540*%
%ADD13C,0.3500*%
%ADD14C,0.4000*%
D10*
X542000Y84100D02*
G03*
X542000Y84100I-1250J0D01*
G01*
X497150Y190750D02*
G03*
X497150Y190750I-1250J0D01*
G01*
X540500Y295900D02*
G03*
X540500Y295900I-1250J0D01*
G01*
X332000Y84100D02*
G03*
X332000Y84100I-1250J0D01*
G01*
X332410Y295900D02*
G03*
X332410Y295900I-1250J0D01*
G01*
X158250Y180000D02*
G03*
X158250Y180000I-1250J0D01*
G01*
X85350Y279250D02*
G03*
X85350Y279250I-1250J0D01*
G01*
X124250Y120000D02*
G03*
X124250Y120000I-1250J0D01*
G01*
D11*
X333250Y217469D02*
Y242531D01*
X310750Y217469D02*
Y242531D01*
X243750Y37469D02*
Y62531D01*
X266250Y37469D02*
Y62531D01*
X221250Y47469D02*
Y72531D01*
X198750Y47469D02*
Y72531D01*
X491250Y97469D02*
Y122531D01*
X468750Y97469D02*
Y122531D01*
X417227Y188750D02*
X442289D01*
X417227Y211250D02*
X442289D01*
X507600Y-74650D02*
Y1450D01*
Y32350D02*
Y52250D01*
X530050Y74650D02*
X549950D01*
X572400Y-74650D02*
Y1450D01*
Y32350D02*
Y52250D01*
X507600Y-74650D02*
X572400D01*
X578550Y157600D02*
X654650D01*
X527750D02*
X547650D01*
X505350Y180050D02*
Y199950D01*
X578550Y222400D02*
X654650D01*
X527750D02*
X547650D01*
X654650Y157600D02*
Y222400D01*
X572400Y378550D02*
Y454650D01*
Y327750D02*
Y347650D01*
X530050Y305350D02*
X549950D01*
X507600Y378550D02*
Y454650D01*
Y327750D02*
Y347650D01*
Y454650D02*
X572400D01*
X297600Y-74650D02*
Y1450D01*
Y32350D02*
Y52250D01*
X320050Y74650D02*
X339950D01*
X362400Y-74650D02*
Y1450D01*
Y32350D02*
Y52250D01*
X297600Y-74650D02*
X362400D01*
X364310Y378550D02*
Y454650D01*
Y327750D02*
Y347650D01*
X321960Y305350D02*
X341860D01*
X299510Y378550D02*
Y454650D01*
Y327750D02*
Y347650D01*
Y454650D02*
X364310D01*
X328750Y137469D02*
Y162531D01*
X351250Y137469D02*
Y162531D01*
X461469Y258750D02*
X486531D01*
X461469Y281250D02*
X486531D01*
X133000Y188250D02*
X147000D01*
X133000Y171750D02*
X147000D01*
X217469Y98750D02*
X242531D01*
X217469Y121250D02*
X242531D01*
X-74650Y247600D02*
Y312400D01*
X32350Y247600D02*
X52250D01*
X-74650D02*
X1450D01*
X74650Y270050D02*
Y289950D01*
X32350Y312400D02*
X52250D01*
X-74650D02*
X1450D01*
X120000Y70000D02*
Y99380D01*
Y140620D02*
Y170000D01*
X59000Y70000D02*
X120000D01*
X-10000D02*
X21000D01*
X-10000Y170000D02*
X21000D01*
X59000D02*
X120000D01*
X-10000Y70000D02*
Y170000D01*
X207469Y167250D02*
X232531D01*
X207469Y189750D02*
X232531D01*
X167469Y281250D02*
X192531D01*
X167469Y258750D02*
X192531D01*
D12*
X318995Y260603D02*
X317328Y262269D01*
X313996D01*
X312330Y260603D01*
Y253938D01*
X313996Y252272D01*
X317328D01*
X318995Y253938D01*
X328991Y262269D02*
X325659Y260603D01*
X322327Y257270D01*
Y253938D01*
X323993Y252272D01*
X327325D01*
X328991Y253938D01*
Y255604D01*
X327325Y257270D01*
X322327D01*
X255431Y84882D02*
X252892Y87421D01*
X247813D01*
X245274Y84882D01*
Y74725D01*
X247813Y72186D01*
X252892D01*
X255431Y74725D01*
X260509Y72186D02*
X265587D01*
X263048D01*
Y87421D01*
X260509Y84882D01*
X273205Y72186D02*
X278283D01*
X275744D01*
Y87421D01*
X273205Y84882D01*
X210473Y94788D02*
X207934Y97327D01*
X202855D01*
X200316Y94788D01*
Y84631D01*
X202855Y82092D01*
X207934D01*
X210473Y84631D01*
X215551Y82092D02*
X220629D01*
X218090D01*
Y97327D01*
X215551Y94788D01*
X238404Y82092D02*
X228247D01*
X238404Y92249D01*
Y94788D01*
X235865Y97327D01*
X230786D01*
X228247Y94788D01*
X67540Y346205D02*
Y353536D01*
X71206Y357202D01*
X74871Y353536D01*
Y346205D01*
Y351704D01*
X67540D01*
X78536Y346205D02*
Y353536D01*
X84035D01*
X85867Y351704D01*
Y346205D01*
X91366Y353536D02*
X95031D01*
X96864Y351704D01*
Y346205D01*
X91366D01*
X89533Y348038D01*
X91366Y349871D01*
X96864D01*
X100529Y346205D02*
X104195D01*
X102362D01*
Y357202D01*
X100529D01*
X111526Y346205D02*
X115191D01*
X117024Y348038D01*
Y351704D01*
X115191Y353536D01*
X111526D01*
X109693Y351704D01*
Y348038D01*
X111526Y346205D01*
X124355Y342540D02*
X126188D01*
X128020Y344373D01*
Y353536D01*
X122522D01*
X120689Y351704D01*
Y348038D01*
X122522Y346205D01*
X128020D01*
X139017Y355369D02*
X137184Y357202D01*
X133519D01*
X131686Y355369D01*
Y348038D01*
X133519Y346205D01*
X137184D01*
X139017Y348038D01*
X144515Y346205D02*
X148181D01*
X150013Y348038D01*
Y351704D01*
X148181Y353536D01*
X144515D01*
X142682Y351704D01*
Y348038D01*
X144515Y346205D01*
X153679D02*
Y353536D01*
X155512D01*
X157344Y351704D01*
Y346205D01*
Y351704D01*
X159177Y353536D01*
X161010Y351704D01*
Y346205D01*
X164675Y342540D02*
Y353536D01*
X170173D01*
X172006Y351704D01*
Y348038D01*
X170173Y346205D01*
X164675D01*
X175672Y344373D02*
X183003D01*
X186668Y353536D02*
X190334Y346205D01*
X193999Y353536D01*
X204996Y346205D02*
X197665D01*
X204996Y353536D01*
Y355369D01*
X203163Y357202D01*
X199497D01*
X197665Y355369D01*
X67540Y374868D02*
Y361872D01*
X74038D01*
X76204Y364038D01*
Y366204D01*
X74038Y368370D01*
X67540D01*
X74038D01*
X76204Y370536D01*
Y372702D01*
X74038Y374868D01*
X67540D01*
X82702Y361872D02*
X87034D01*
X89200Y364038D01*
Y368370D01*
X87034Y370536D01*
X82702D01*
X80536Y368370D01*
Y364038D01*
X82702Y361872D01*
X93532D02*
X100029D01*
X102196Y364038D01*
X100029Y366204D01*
X95698D01*
X93532Y368370D01*
X95698Y370536D01*
X102196D01*
X108693Y372702D02*
Y370536D01*
X106527D01*
X110859D01*
X108693D01*
Y364038D01*
X110859Y361872D01*
X119523D02*
X123855D01*
X126021Y364038D01*
Y368370D01*
X123855Y370536D01*
X119523D01*
X117357Y368370D01*
Y364038D01*
X119523Y361872D01*
X130353D02*
Y370536D01*
X136851D01*
X139017Y368370D01*
Y361872D01*
X156345Y374868D02*
Y364038D01*
X158511Y361872D01*
X162843D01*
X165009Y364038D01*
Y374868D01*
X169340Y361872D02*
Y370536D01*
X175838D01*
X178004Y368370D01*
Y361872D01*
X182336D02*
X186668D01*
X184502D01*
Y370536D01*
X182336D01*
X193166D02*
X197498Y361872D01*
X201830Y370536D01*
X212660Y361872D02*
X208328D01*
X206162Y364038D01*
Y368370D01*
X208328Y370536D01*
X212660D01*
X214826Y368370D01*
Y366204D01*
X206162D01*
X219158Y370536D02*
Y361872D01*
Y366204D01*
X221324Y368370D01*
X223490Y370536D01*
X225656D01*
X232153Y361872D02*
X238651D01*
X240817Y364038D01*
X238651Y366204D01*
X234319D01*
X232153Y368370D01*
X234319Y370536D01*
X240817D01*
X245149Y361872D02*
X249481D01*
X247315D01*
Y370536D01*
X245149D01*
X258145Y372702D02*
Y370536D01*
X255979D01*
X260311D01*
X258145D01*
Y364038D01*
X260311Y361872D01*
X266809Y370536D02*
Y364038D01*
X268975Y361872D01*
X275473D01*
Y359706D01*
X273307Y357540D01*
X271141D01*
X275473Y361872D02*
Y370536D01*
X424404Y228091D02*
X422738Y229757D01*
X419406D01*
X417740Y228091D01*
Y221426D01*
X419406Y219760D01*
X422738D01*
X424404Y221426D01*
X427737Y219760D02*
X431069D01*
X429403D01*
Y229757D01*
X427737Y228091D01*
X436067D02*
X437734Y229757D01*
X441066D01*
X442732Y228091D01*
Y221426D01*
X441066Y219760D01*
X437734D01*
X436067Y221426D01*
Y228091D01*
X468601Y298195D02*
X466934Y299861D01*
X463602D01*
X461936Y298195D01*
Y291530D01*
X463602Y289864D01*
X466934D01*
X468601Y291530D01*
X471933D02*
X473599Y289864D01*
X476931D01*
X478597Y291530D01*
Y298195D01*
X476931Y299861D01*
X473599D01*
X471933Y298195D01*
Y296528D01*
X473599Y294862D01*
X478597D01*
X453334Y118332D02*
X451668Y119998D01*
X448335D01*
X446669Y118332D01*
Y111668D01*
X448335Y110002D01*
X451668D01*
X453334Y111668D01*
X456666Y118332D02*
X458332Y119998D01*
X461665D01*
X463331Y118332D01*
Y116666D01*
X461665Y115000D01*
X463331Y113334D01*
Y111668D01*
X461665Y110002D01*
X458332D01*
X456666Y111668D01*
Y113334D01*
X458332Y115000D01*
X456666Y116666D01*
Y118332D01*
X458332Y115000D02*
X461665D01*
X337029Y180593D02*
X335362Y182259D01*
X332030D01*
X330364Y180593D01*
Y173928D01*
X332030Y172262D01*
X335362D01*
X337029Y173928D01*
X340361Y182259D02*
X347025D01*
Y180593D01*
X340361Y173928D01*
Y172262D01*
X537461Y217617D02*
X532383D01*
X534922D01*
Y204922D01*
X532383Y202383D01*
X529843D01*
X527304Y204922D01*
X542539Y217617D02*
X552696D01*
Y215078D01*
X542539Y204922D01*
Y202383D01*
X537461Y367617D02*
X532383D01*
X534922D01*
Y354922D01*
X532383Y352383D01*
X529843D01*
X527304Y354922D01*
X552696Y367617D02*
X547617Y365078D01*
X542539Y360000D01*
Y354922D01*
X545078Y352383D01*
X550157D01*
X552696Y354922D01*
Y357461D01*
X550157Y360000D01*
X542539D01*
X537461Y27617D02*
X532383D01*
X534922D01*
Y14922D01*
X532383Y12383D01*
X529843D01*
X527304Y14922D01*
X552696Y27617D02*
X542539D01*
Y20000D01*
X547617Y22539D01*
X550157D01*
X552696Y20000D01*
Y14922D01*
X550157Y12383D01*
X545078D01*
X542539Y14922D01*
X327461Y27617D02*
X322383D01*
X324922D01*
Y14922D01*
X322383Y12383D01*
X319843D01*
X317304Y14922D01*
X340157Y12383D02*
Y27617D01*
X332539Y20000D01*
X342696D01*
X37461Y267617D02*
X32383D01*
X34922D01*
Y254922D01*
X32383Y252383D01*
X29843D01*
X27304Y254922D01*
X42539Y265078D02*
X45078Y267617D01*
X50157D01*
X52696Y265078D01*
Y262539D01*
X50157Y260000D01*
X47618D01*
X50157D01*
X52696Y257461D01*
Y254922D01*
X50157Y252383D01*
X45078D01*
X42539Y254922D01*
X327461Y367617D02*
X322383D01*
X324922D01*
Y354922D01*
X322383Y352383D01*
X319843D01*
X317304Y354922D01*
X342696Y352383D02*
X332539D01*
X342696Y362539D01*
Y365078D01*
X340157Y367617D01*
X335078D01*
X332539Y365078D01*
X80000Y127618D02*
X74922D01*
X77461D01*
Y114922D01*
X74922Y112382D01*
X72382D01*
X69843Y114922D01*
X85078Y112382D02*
X90157D01*
X87618D01*
Y127618D01*
X85078Y125078D01*
X133336Y164998D02*
Y155002D01*
X138334D01*
X140000Y156668D01*
Y163332D01*
X138334Y164998D01*
X133336D01*
X143332Y155002D02*
X146664D01*
X144998D01*
Y164998D01*
X143332Y163332D01*
X174722Y298195D02*
X173056Y299861D01*
X169724D01*
X168058Y298195D01*
Y291530D01*
X169724Y289864D01*
X173056D01*
X174722Y291530D01*
X184719Y299861D02*
X178055D01*
Y294862D01*
X181387Y296528D01*
X183053D01*
X184719Y294862D01*
Y291530D01*
X183053Y289864D01*
X179721D01*
X178055Y291530D01*
X214601Y206755D02*
X212934Y208421D01*
X209602D01*
X207936Y206755D01*
Y200090D01*
X209602Y198424D01*
X212934D01*
X214601Y200090D01*
X217933Y206755D02*
X219599Y208421D01*
X222931D01*
X224597Y206755D01*
Y205089D01*
X222931Y203422D01*
X221265D01*
X222931D01*
X224597Y201756D01*
Y200090D01*
X222931Y198424D01*
X219599D01*
X217933Y200090D01*
X228253Y142540D02*
X225714Y145079D01*
X220635D01*
X218096Y142540D01*
Y132383D01*
X220635Y129844D01*
X225714D01*
X228253Y132383D01*
X243488Y129844D02*
X233331D01*
X243488Y140001D01*
Y142540D01*
X240949Y145079D01*
X235870D01*
X233331Y142540D01*
D13*
X476507Y155997D02*
Y150999D01*
X479006Y148500D01*
X489002D01*
X491502Y150999D01*
Y155997D01*
X489002Y158497D01*
X479006D01*
X476507Y155997D01*
X481505Y163495D02*
X489002D01*
X491502Y165994D01*
Y173492D01*
X481505D01*
X479006Y180989D02*
X481505D01*
Y178490D01*
Y183489D01*
Y180989D01*
X489002D01*
X491502Y183489D01*
X496500Y190986D02*
X481505D01*
Y198484D01*
X484004Y200983D01*
X489002D01*
X491502Y198484D01*
Y190986D01*
X481505Y205981D02*
X489002D01*
X491502Y208480D01*
Y215978D01*
X481505D01*
X479006Y223476D02*
X481505D01*
Y220977D01*
Y225975D01*
Y223476D01*
X489002D01*
X491502Y225975D01*
X505998Y293493D02*
X500999D01*
X498500Y290994D01*
Y280998D01*
X500999Y278498D01*
X505998D01*
X508497Y280998D01*
Y290994D01*
X505998Y293493D01*
X513495Y288495D02*
Y280998D01*
X515994Y278498D01*
X523492D01*
Y288495D01*
X530989Y290994D02*
Y288495D01*
X528490D01*
X533489D01*
X530989D01*
Y280998D01*
X533489Y278498D01*
X540986Y273500D02*
Y288495D01*
X548484D01*
X550983Y285996D01*
Y280998D01*
X548484Y278498D01*
X540986D01*
X555981Y288495D02*
Y280998D01*
X558480Y278498D01*
X565978D01*
Y288495D01*
X573476Y290994D02*
Y288495D01*
X570976D01*
X575975D01*
X573476D01*
Y280998D01*
X575975Y278498D01*
X505998Y103493D02*
X500999D01*
X498500Y100994D01*
Y90998D01*
X500999Y88498D01*
X505998D01*
X508497Y90998D01*
Y100994D01*
X505998Y103493D01*
X513495Y98495D02*
Y90998D01*
X515994Y88498D01*
X523492D01*
Y98495D01*
X530989Y100994D02*
Y98495D01*
X528490D01*
X533489D01*
X530989D01*
Y90998D01*
X533489Y88498D01*
X540986Y83500D02*
Y98495D01*
X548484D01*
X550983Y95996D01*
Y90998D01*
X548484Y88498D01*
X540986D01*
X555981Y98495D02*
Y90998D01*
X558480Y88498D01*
X565978D01*
Y98495D01*
X573476Y100994D02*
Y98495D01*
X570976D01*
X575975D01*
X573476D01*
Y90998D01*
X575975Y88498D01*
X300998Y103493D02*
X295999D01*
X293500Y100994D01*
Y90998D01*
X295999Y88498D01*
X300998D01*
X303497Y90998D01*
Y100994D01*
X300998Y103493D01*
X308495Y98495D02*
Y90998D01*
X310994Y88498D01*
X318492D01*
Y98495D01*
X325989Y100994D02*
Y98495D01*
X323490D01*
X328489D01*
X325989D01*
Y90998D01*
X328489Y88498D01*
X335986Y83500D02*
Y98495D01*
X343484D01*
X345983Y95996D01*
Y90998D01*
X343484Y88498D01*
X335986D01*
X350981Y98495D02*
Y90998D01*
X353480Y88498D01*
X360978D01*
Y98495D01*
X368476Y100994D02*
Y98495D01*
X365976D01*
X370975D01*
X368476D01*
Y90998D01*
X370975Y88498D01*
X300998Y298493D02*
X295999D01*
X293500Y295994D01*
Y285998D01*
X295999Y283498D01*
X300998D01*
X303497Y285998D01*
Y295994D01*
X300998Y298493D01*
X308495Y293495D02*
Y285998D01*
X310994Y283498D01*
X318492D01*
Y293495D01*
X325989Y295994D02*
Y293495D01*
X323490D01*
X328489D01*
X325989D01*
Y285998D01*
X328489Y283498D01*
X335986Y278500D02*
Y293495D01*
X343484D01*
X345983Y290996D01*
Y285998D01*
X343484Y283498D01*
X335986D01*
X350981Y293495D02*
Y285998D01*
X353480Y283498D01*
X360978D01*
Y293495D01*
X368476Y295994D02*
Y293495D01*
X365976D01*
X370975D01*
X368476D01*
Y285998D01*
X370975Y283498D01*
X3500Y238493D02*
X8498D01*
X5999D01*
Y223498D01*
X3500D01*
X8498D01*
X15996D02*
Y233495D01*
X23493D01*
X25993Y230996D01*
Y223498D01*
X30991Y218500D02*
Y233495D01*
X38489D01*
X40988Y230996D01*
Y225998D01*
X38489Y223498D01*
X30991D01*
X45986Y233495D02*
Y225998D01*
X48485Y223498D01*
X55983D01*
Y233495D01*
X63481Y235994D02*
Y233495D01*
X60981D01*
X65980D01*
X63481D01*
Y225998D01*
X65980Y223498D01*
X103497Y63495D02*
X93500D01*
Y55998D01*
X98498Y58497D01*
X100997D01*
X103497Y55998D01*
Y50999D01*
X100997Y48500D01*
X95999D01*
X93500Y50999D01*
X108495Y63495D02*
Y53498D01*
X113493Y48500D01*
X118492Y53498D01*
Y63495D01*
D14*
X86460Y176421D02*
X96617Y186577D01*
X116930Y176421D02*
X124548Y184038D01*
X116930Y191656D01*
X91538Y198921D02*
X86460Y203999D01*
Y209077D01*
X91538Y214156D01*
X116930Y198921D02*
X122008D01*
X124548Y201460D01*
Y206538D01*
X122008Y209077D01*
X116930D01*
X114391Y206538D01*
Y201460D01*
X116930Y198921D01*
Y216695D02*
X122008Y214156D01*
X129626Y206538D02*
X139783D01*
X147400Y198921D02*
X152479D01*
X155018Y201460D01*
Y206538D01*
X152479Y209077D01*
X147400D01*
X144861Y206538D01*
Y201460D01*
X147400Y198921D01*
Y216695D02*
X152479Y214156D01*
X160096Y198921D02*
X165175Y203999D01*
Y209077D01*
X160096Y214156D01*
X96538Y221460D02*
X91460Y226538D01*
Y231617D01*
X96538Y236695D01*
X114313Y221460D02*
X104156Y231617D01*
X119391Y218921D02*
X129548D01*
X134626Y221460D02*
X144783Y231617D01*
X149861Y221460D02*
X154939Y226538D01*
Y231617D01*
X149861Y236695D01*
M02*
